<svg xmlns="http://www.w3.org/2000/svg" viewBox="0 0 88 88" fill="none">
  <defs>
    <linearGradient id="bg" x1="0" y1="0" x2="1" y2="1">
      <stop offset="0" stop-color="#D4BFF0"/>
      <stop offset="1" stop-color="#9F7BD3"/>
    </linearGradient>
    <linearGradient id="page" x1="0" y1="0" x2="0" y2="1">
      <stop offset="0" stop-color="#FFFCF7"/>
      <stop offset="1" stop-color="#F0E4FF"/>
    </linearGradient>
  </defs>
  <rect x="4" y="4" width="80" height="80" rx="22" fill="url(#bg)"/>
  <rect x="4" y="4" width="80" height="80" rx="22" fill="none" stroke="rgba(255,255,255,0.4)" stroke-width="1.5"/>
  <path d="M44 22 L18 30 L18 64 L44 58 L70 64 L70 30 Z" fill="url(#page)" stroke="#6B4FA8" stroke-width="2" stroke-linejoin="round"/>
  <line x1="44" y1="22" x2="44" y2="58" stroke="#6B4FA8" stroke-width="2" stroke-linecap="round"/>
  <line x1="24" y1="38" x2="38" y2="36" stroke="#9F7BD3" stroke-width="2" stroke-linecap="round"/>
  <line x1="24" y1="44" x2="38" y2="42" stroke="#C9A0DC" stroke-width="2" stroke-linecap="round"/>
  <line x1="24" y1="50" x2="36" y2="48" stroke="#C9A0DC" stroke-width="2" stroke-linecap="round"/>
  <line x1="50" y1="36" x2="64" y2="38" stroke="#9F7BD3" stroke-width="2" stroke-linecap="round"/>
  <line x1="50" y1="42" x2="64" y2="44" stroke="#C9A0DC" stroke-width="2" stroke-linecap="round"/>
  <line x1="52" y1="48" x2="64" y2="50" stroke="#C9A0DC" stroke-width="2" stroke-linecap="round"/>
  <path d="M38 14 L50 14 L44 8 Z" fill="#FFFCF7" stroke="#6B4FA8" stroke-width="2" stroke-linejoin="round"/>
</svg>
