<svg xmlns="http://www.w3.org/2000/svg" viewBox="0 0 88 88" fill="none">
  <defs>
    <linearGradient id="bg" x1="0" y1="0" x2="1" y2="1">
      <stop offset="0" stop-color="#B5E8EE"/>
      <stop offset="1" stop-color="#6FCFD5"/>
    </linearGradient>
  </defs>
  <rect x="4" y="4" width="80" height="80" rx="22" fill="url(#bg)"/>
  <rect x="4" y="4" width="80" height="80" rx="22" fill="none" stroke="rgba(255,255,255,0.5)" stroke-width="1.5"/>
  <rect x="18" y="18" width="22" height="22" rx="4" fill="#FFFCF7" stroke="#2D3D6B" stroke-width="2.5"/>
  <rect x="22" y="22" width="6" height="6" fill="#2D3D6B"/>
  <rect x="28" y="28" width="6" height="6" fill="#2D3D6B"/>
  <rect x="48" y="18" width="22" height="22" rx="4" fill="#FFFCF7" stroke="#2D3D6B" stroke-width="2.5"/>
  <rect x="52" y="22" width="6" height="6" fill="#2D3D6B"/>
  <rect x="58" y="28" width="6" height="6" fill="#2D3D6B"/>
  <rect x="18" y="48" width="22" height="22" rx="4" fill="#FFFCF7" stroke="#2D3D6B" stroke-width="2.5"/>
  <rect x="22" y="52" width="6" height="6" fill="#2D3D6B"/>
  <rect x="28" y="58" width="6" height="6" fill="#2D3D6B"/>
  <rect x="48" y="48" width="4" height="4" fill="#2D3D6B"/>
  <rect x="54" y="48" width="4" height="4" fill="#2D3D6B"/>
  <rect x="60" y="48" width="4" height="4" fill="#2D3D6B"/>
  <rect x="48" y="54" width="4" height="4" fill="#2D3D6B"/>
  <rect x="60" y="54" width="4" height="4" fill="#2D3D6B"/>
  <rect x="48" y="60" width="4" height="4" fill="#2D3D6B"/>
  <rect x="54" y="60" width="4" height="4" fill="#2D3D6B"/>
  <rect x="60" y="60" width="4" height="4" fill="#2D3D6B"/>
</svg>
